<?xml version="1.0" standalone="no"?>
<!DOCTYPE svg PUBLIC "-//W3C//DTD SVG 20010904//EN"
 "http://www.w3.org/TR/2001/REC-SVG-20010904/DTD/svg10.dtd">
<svg version="1.0" xmlns="http://www.w3.org/2000/svg"
 width="1102.000000pt" height="398.000000pt" viewBox="0 0 1102.000000 398.000000"
 preserveAspectRatio="xMidYMid meet">
<metadata>
Created by potrace 1.16, written by Peter Selinger 2001-2019
</metadata>
<g transform="translate(0.000000,398.000000) scale(0.100000,-0.100000)"
fill="#000000" stroke="none">
<path d="M0 1990 l0 -1990 5510 0 5510 0 0 1990 0 1990 -5510 0 -5510 0 0
-1990z m1939 914 c157 -92 306 -179 331 -194 25 -15 88 -52 140 -82 52 -30
149 -87 215 -126 114 -67 180 -104 305 -171 30 -17 61 -34 68 -39 10 -6 -66
-52 -255 -152 -147 -79 -276 -149 -286 -155 -16 -11 -11 -16 45 -50 105 -63
380 -225 383 -225 1 0 28 -15 59 -34 l56 -34 -42 -25 c-114 -66 -1135 -640
-1220 -686 l-98 -53 0 452 c0 392 2 451 15 447 8 -4 68 -32 134 -64 l121 -58
0 -157 c0 -88 4 -158 9 -158 5 0 111 61 235 135 124 74 241 143 261 152 19 9
35 20 35 24 0 4 -44 34 -97 65 -232 136 -699 417 -710 428 -10 9 -19 212 -14
293 1 11 82 -32 231 -124 36 -22 91 -54 123 -72 32 -17 79 -45 105 -61 94 -59
77 -61 227 24 74 43 135 81 135 85 0 7 -140 91 -152 91 -7 0 -650 359 -661
369 -8 8 3 321 11 321 2 0 133 -75 291 -166z m1955 -518 c66 -16 111 -52 125
-103 20 -70 -61 -164 -201 -231 -43 -20 -78 -40 -78 -43 0 -3 27 -18 61 -34
107 -49 137 -88 141 -180 6 -171 -286 -334 -603 -336 -76 -1 -107 3 -136 18
-70 33 -49 93 32 93 56 0 52 -5 199 287 125 247 147 283 176 283 26 0 53 -29
47 -51 -7 -25 4 -24 66 7 79 40 141 89 162 128 l20 36 -23 22 c-20 21 -32 23
-115 22 -75 0 -105 -6 -161 -27 -84 -33 -164 -81 -234 -141 -41 -35 -62 -46
-88 -46 -70 0 -65 72 9 141 138 128 414 199 601 155z m2646 -6 c7 -13 12 -119
13 -290 1 -149 5 -270 9 -270 7 0 30 36 75 120 178 328 263 455 300 448 16 -3
18 -15 18 -88 0 -79 -8 -185 -20 -270 -3 -19 -7 -53 -10 -75 -13 -99 -16 -122
-21 -155 -3 -19 -7 -92 -8 -162 -2 -148 -13 -171 -75 -166 -35 3 -36 4 -39 51
-3 45 52 539 65 581 13 43 -19 0 -63 -87 -87 -171 -187 -352 -212 -382 -13
-16 -37 -38 -52 -47 -22 -15 -29 -16 -44 -5 -16 12 -19 38 -24 245 -3 128 -8
232 -11 231 -3 0 -38 -66 -78 -147 -112 -229 -223 -386 -303 -427 -46 -24
-109 -25 -124 -2 -9 15 -6 22 23 45 123 99 186 189 316 450 79 159 175 374
175 390 0 32 74 42 90 12z m-1242 -78 c16 -21 17 -20 -108 -270 -141 -283
-200 -414 -200 -441 0 -26 36 -29 83 -5 99 52 166 106 204 167 84 133 247 217
344 177 26 -11 32 -11 40 1 8 13 51 112 129 301 32 78 50 95 95 89 59 -9 53
-55 -31 -233 -221 -473 -240 -528 -187 -528 35 0 139 68 210 138 69 67 78 72
89 57 19 -25 -11 -77 -83 -146 -121 -116 -180 -145 -276 -140 -29 2 -67 47
-67 81 0 16 -2 30 -5 30 -3 0 -19 -15 -36 -34 -60 -68 -177 -99 -234 -62 -14
9 -29 33 -35 56 -6 22 -13 40 -16 40 -4 0 -20 -12 -38 -27 -56 -48 -145 -83
-208 -83 -54 0 -59 2 -73 30 -8 16 -15 37 -15 46 0 14 -5 12 -32 -8 -109 -83
-232 -95 -268 -28 -10 19 -12 19 -71 -11 -73 -36 -129 -41 -160 -14 -18 17
-20 27 -16 73 l6 53 -47 -50 c-59 -62 -121 -91 -200 -92 -70 -1 -108 18 -117
61 -11 51 83 286 152 378 25 34 68 43 91 20 19 -19 14 -39 -26 -103 -128 -202
-125 -303 6 -236 78 40 165 147 213 263 12 29 29 61 37 71 28 33 82 16 82 -26
0 -11 -25 -70 -56 -133 -37 -76 -56 -127 -57 -156 -2 -41 -1 -43 28 -46 47 -5
116 37 131 78 6 19 37 88 67 152 46 97 60 118 82 124 30 7 65 -18 65 -48 0
-10 -18 -55 -41 -101 -77 -154 -83 -197 -27 -197 16 0 43 7 61 16 46 24 137
103 147 129 4 12 40 88 79 170 39 81 71 149 71 151 0 18 133 275 147 283 22
12 53 5 71 -17z m2626 -48 c4 -18 2 -51 -3 -71 -32 -122 -59 -552 -36 -560 21
-6 175 253 229 385 86 211 119 253 176 222 27 -15 23 -38 -24 -153 -40 -96
-55 -183 -56 -322 0 -100 7 -138 24 -132 10 3 109 152 123 187 4 8 19 35 33
60 48 82 100 217 120 310 11 51 25 99 32 107 7 9 25 13 47 11 l36 -3 -3 -48
c-5 -70 -63 -229 -151 -412 -153 -317 -204 -381 -286 -361 -35 9 -52 49 -65
152 -23 178 -11 172 -96 48 -94 -139 -119 -171 -149 -190 -33 -21 -81 -21
-106 2 -20 18 -21 25 -15 189 7 180 13 279 22 359 l6 49 -30 -22 c-44 -31 -56
-28 -49 16 10 59 54 138 112 200 l54 57 25 -23 c13 -12 27 -38 30 -57z m1424
64 c7 -7 12 -19 12 -28 0 -10 -44 -109 -99 -221 -54 -112 -97 -206 -95 -208 2
-2 12 3 21 11 10 9 41 27 70 42 89 44 175 30 209 -35 19 -37 14 -76 -21 -162
-19 -49 -21 -59 -9 -64 26 -10 85 5 162 42 40 19 78 32 83 29 16 -10 9 -54
-12 -75 -58 -58 -236 -107 -288 -80 -20 11 -27 8 -65 -27 -66 -61 -100 -75
-193 -80 -81 -4 -83 -4 -113 26 -16 17 -33 44 -36 61 -4 17 -9 31 -12 31 -2 0
-28 -14 -58 -30 -132 -76 -283 -102 -351 -60 -71 43 -93 152 -49 245 55 116
161 194 275 203 79 5 107 -6 125 -50 32 -75 -33 -161 -169 -227 -44 -21 -88
-41 -97 -45 -25 -8 -22 -33 3 -47 36 -19 117 -1 224 50 55 26 105 54 111 62 6
8 23 46 38 84 69 174 231 522 253 543 26 24 62 29 81 10z m-2114 -394 c26 -10
19 -37 -48 -178 -35 -74 -61 -137 -58 -140 16 -16 45 6 183 142 151 148 180
171 211 172 37 0 28 -38 -43 -184 -40 -80 -70 -149 -67 -152 3 -3 27 8 54 23
73 43 172 85 191 81 8 -2 20 -13 24 -26 12 -33 -15 -57 -142 -126 -178 -97
-192 -111 -254 -255 -62 -141 -93 -181 -142 -181 -88 0 -60 149 54 286 45 54
176 304 159 304 -2 0 -34 -32 -72 -70 -116 -119 -211 -171 -274 -148 -20 7
-22 13 -18 51 3 23 27 87 54 142 27 55 62 131 78 168 35 83 65 108 110 91z"/>
<path d="M3531 1770 c-50 -100 -91 -183 -91 -187 0 -13 114 9 175 33 162 65
221 156 159 248 -24 35 -107 86 -141 86 -6 0 -53 -81 -102 -180z"/>
<path d="M5533 1843 c-84 -29 -163 -121 -184 -212 -10 -44 -2 -61 28 -61 70 0
148 74 213 202 22 44 40 81 40 84 0 9 -57 2 -97 -13z"/>
<path d="M8715 1841 c-16 -10 -37 -27 -47 -37 -20 -23 -68 -117 -63 -123 6 -5
137 73 174 105 19 16 31 35 31 50 0 20 -5 24 -32 24 -18 0 -46 -8 -63 -19z"/>
<path d="M9225 1823 c-135 -71 -184 -253 -68 -253 109 0 225 144 192 239 -10
28 -15 31 -52 31 -23 -1 -55 -8 -72 -17z"/>
</g>
</svg>
